<svg width="256" height="257" viewBox="0 0 256 257" fill="none" xmlns="http://www.w3.org/2000/svg">
<path fill-rule="evenodd" clip-rule="evenodd" d="M251.194 112.287C251.194 147.29 226.482 177.857 189.736 194.244L193.069 238.454L154.116 204.842C145.699 206.238 136.961 206.974 128 206.974C59.962 206.974 4.8064 164.581 4.8064 112.287C4.8064 59.9924 59.962 17.5996 128 17.5996C196.038 17.5996 251.194 59.9924 251.194 112.287ZM195.304 128.238C201.667 128.238 206.825 123.079 206.825 116.717C206.825 110.354 201.667 105.196 195.304 105.196C188.941 105.196 183.783 110.354 183.783 116.717C183.783 123.079 188.941 128.238 195.304 128.238ZM139.521 116.717C139.521 123.079 134.363 128.238 128 128.238C121.637 128.238 116.479 123.079 116.479 116.717C116.479 110.354 121.637 105.196 128 105.196C134.363 105.196 139.521 110.354 139.521 116.717ZM60.6959 128.238C67.0587 128.238 72.2168 123.079 72.2168 116.717C72.2168 110.354 67.0587 105.196 60.6959 105.196C54.3331 105.196 49.175 110.354 49.175 116.717C49.175 123.079 54.3331 128.238 60.6959 128.238Z" fill="#2C3E50"/>
</svg>
